<svg width="43" height="43" viewBox="0 0 43 43" fill="none" xmlns="http://www.w3.org/2000/svg">
<g clip-path="url(#clip0_2_443)">
<path d="M43 0H0V43H43V0Z" fill="url(#paint0_linear_2_443)"/>
<path fill-rule="evenodd" clip-rule="evenodd" d="M16.6 11H26.4C27.8853 11 29.3096 11.59 30.3598 12.6402C31.41 13.6904 32 15.1147 32 16.6V26.4C32 27.8853 31.41 29.3096 30.3598 30.3598C29.3096 31.41 27.8853 32 26.4 32H16.6C15.1147 32 13.6904 31.41 12.6402 30.3598C11.59 29.3096 11 27.8853 11 26.4V16.6C11 15.1147 11.59 13.6904 12.6402 12.6402C13.6904 11.59 15.1147 11 16.6 11ZM16.6 13.8H26.4C27.1426 13.8 27.8547 14.095 28.3799 14.6201C28.905 15.1453 29.2 15.8574 29.2 16.6V26.4C29.2 27.1426 28.905 27.8547 28.3799 28.3799C27.8547 28.905 27.1426 29.2 26.4 29.2H16.6C15.8574 29.2 15.1453 28.905 14.6201 28.3799C14.095 27.8547 13.8 27.1426 13.8 26.4V16.6C13.8 15.8574 14.095 15.1453 14.6201 14.6201C15.1453 14.095 15.8574 13.8 16.6 13.8ZM21.5 16.6C22.4691 16.6 23.4165 16.8874 24.2223 17.4257C25.0281 17.9642 25.6562 18.7295 26.027 19.6248C26.3979 20.5203 26.4949 21.5055 26.3058 22.4559C26.1168 23.4065 25.65 24.2796 24.9649 24.9649C24.2796 25.6502 23.4064 26.1168 22.4559 26.3058C21.5055 26.4949 20.5201 26.3979 19.6248 26.027C18.7294 25.6562 17.9642 25.0281 17.4257 24.2223C16.8874 23.4165 16.6 22.4691 16.6 21.5C16.6 20.2004 17.1163 18.9541 18.0351 18.0351C18.9541 17.1162 20.2004 16.6 21.5 16.6ZM21.5 19.4C21.9154 19.4 22.3214 19.5232 22.6668 19.7539C23.012 19.9846 23.2812 20.3127 23.4401 20.6964C23.599 21.0801 23.6407 21.5024 23.5597 21.9096C23.4786 22.317 23.2786 22.6913 22.985 22.985C22.6913 23.2786 22.317 23.4786 21.9098 23.5597C21.5024 23.6407 21.0801 23.5992 20.6964 23.4401C20.3127 23.2812 19.9846 23.012 19.7539 22.6666C19.5232 22.3214 19.4 21.9154 19.4 21.5C19.4 20.9431 19.6212 20.4088 20.015 20.015C20.4088 19.6212 20.9431 19.4 21.5 19.4Z" fill="white"/>
</g>
<defs>
<linearGradient id="paint0_linear_2_443" x1="32.252" y1="-1.45321e-06" x2="10.748" y2="43" gradientUnits="userSpaceOnUse">
<stop stop-color="#9E42B4"/>
<stop offset="0.067" stop-color="#9E42B4"/>
<stop offset="0.473" stop-color="#E5566F"/>
<stop offset="1" stop-color="#FDC76D"/>
</linearGradient>
<clipPath id="clip0_2_443">
<rect width="43" height="43" fill="white"/>
</clipPath>
</defs>
</svg>
