<svg width="43" height="43" viewBox="0 0 43 43" fill="none" xmlns="http://www.w3.org/2000/svg">
<path d="M43 0H0V43H43V0Z" fill="url(#paint0_linear_1_231)"/>
<path fill-rule="evenodd" clip-rule="evenodd" d="M18 14H25C26.0609 14 27.0783 14.4214 27.8284 15.1716C28.5786 15.9217 29 16.9391 29 18V25C29 26.0609 28.5786 27.0783 27.8284 27.8284C27.0783 28.5786 26.0609 29 25 29H18C16.9391 29 15.9217 28.5786 15.1716 27.8284C14.4214 27.0783 14 26.0609 14 25V18C14 16.9391 14.4214 15.9217 15.1716 15.1716C15.9217 14.4214 16.9391 14 18 14ZM18 16H25C25.5304 16 26.0391 16.2107 26.4142 16.5858C26.7893 16.9609 27 17.4696 27 18V25C27 25.5304 26.7893 26.0391 26.4142 26.4142C26.0391 26.7893 25.5304 27 25 27H18C17.4696 27 16.9609 26.7893 16.5858 26.4142C16.2107 26.0391 16 25.5304 16 25V18C16 17.4696 16.2107 16.9609 16.5858 16.5858C16.9609 16.2107 17.4696 16 18 16ZM21.5 18C22.1922 18 22.8689 18.2053 23.4445 18.5898C24.0201 18.9744 24.4687 19.5211 24.7336 20.1606C24.9985 20.8002 25.0678 21.5039 24.9327 22.1828C24.7977 22.8618 24.4643 23.4854 23.9749 23.9749C23.4854 24.4644 22.8617 24.7977 22.1828 24.9327C21.5039 25.0678 20.8001 24.9985 20.1606 24.7336C19.521 24.4687 18.9744 24.0201 18.5898 23.4445C18.2053 22.8689 18 22.1922 18 21.5C18 20.5717 18.3688 19.6815 19.0251 19.0251C19.6815 18.3687 20.5717 18 21.5 18ZM21.5 20C21.7967 20 22.0867 20.088 22.3334 20.2528C22.58 20.4176 22.7723 20.6519 22.8858 20.926C22.9993 21.2001 23.0291 21.5017 22.9712 21.7926C22.9133 22.0836 22.7704 22.3509 22.5607 22.5607C22.3509 22.7704 22.0836 22.9133 21.7927 22.9712C21.5017 23.0291 21.2001 22.9994 20.926 22.8858C20.6519 22.7723 20.4176 22.58 20.2528 22.3333C20.088 22.0867 20 21.7967 20 21.5C20 21.1022 20.158 20.7206 20.4393 20.4393C20.7206 20.158 21.1022 20 21.5 20Z" fill="white"/>
<defs>
<linearGradient id="paint0_linear_1_231" x1="32.252" y1="-1.71714e-07" x2="10.748" y2="43" gradientUnits="userSpaceOnUse">
<stop stop-color="#9E42B4"/>
<stop offset="0.067" stop-color="#9E42B4"/>
<stop offset="0.473" stop-color="#E5566F"/>
<stop offset="1" stop-color="#FDC76D"/>
</linearGradient>
</defs>
</svg>
