<svg width="43" height="43" viewBox="0 0 43 43" fill="none" xmlns="http://www.w3.org/2000/svg">
<g clip-path="url(#clip0_2_433)">
<path d="M43 0H0V43H43V0Z" fill="#2AA1DA"/>
<path fill-rule="evenodd" clip-rule="evenodd" d="M29.4187 29.8183C29.386 30.1734 29.2476 30.5106 29.0215 30.7864C28.7955 31.0621 28.492 31.2637 28.1501 31.3653C27.8082 31.467 27.4441 31.4637 27.104 31.3562C26.7641 31.2487 26.4638 31.0418 26.2426 30.7622C24.2978 29.2152 21.2647 26.9885 21.2647 26.9885C21.2647 26.9885 19.0699 30.855 18.6774 31.2511C18.5479 31.3603 18.3971 31.4413 18.2344 31.4887C18.0718 31.5362 17.9009 31.549 17.7328 31.5267C17.5649 31.5044 17.4035 31.4473 17.2589 31.3588C17.1144 31.2705 16.9897 31.1529 16.8932 31.0138C16.8732 30.9529 16.8495 30.8933 16.822 30.8353L18.0531 24.6761L26.8316 16.0529L14.8591 22.8848C14.8591 22.8848 9.4529 21.2683 8.64999 20.9524C8.44302 20.8393 8.27209 20.6698 8.15736 20.4636C8.04264 20.2573 7.98875 20.0229 8.00195 19.7872C8.01498 19.5515 8.09438 19.3243 8.23123 19.1322C8.36808 18.9398 8.55667 18.7903 8.77507 18.7007C9.91698 18.1191 30.0608 10.4254 30.7389 10.2274C31.4169 10.0293 33.2013 9.5137 33.005 11.2498C32.8088 12.9858 29.615 28.8655 29.4187 29.8183Z" fill="white"/>
</g>
<defs>
<clipPath id="clip0_2_433">
<rect width="43" height="43" fill="white"/>
</clipPath>
</defs>
</svg>
