<svg width="43" height="43" viewBox="0 0 43 43" fill="none" xmlns="http://www.w3.org/2000/svg">
<path d="M43 0H0V43H43V0Z" fill="#2AA1DA"/>
<path fill-rule="evenodd" clip-rule="evenodd" d="M25.98 26.1C25.9617 26.299 25.8841 26.488 25.7574 26.6426C25.6307 26.7971 25.4606 26.9101 25.269 26.967C25.0774 27.024 24.8733 27.0222 24.6827 26.9619C24.4922 26.9017 24.3239 26.7857 24.1999 26.629C23.1099 25.762 21.41 24.514 21.41 24.514C21.41 24.514 20.1799 26.681 19.9599 26.903C19.8873 26.9642 19.8028 27.0096 19.7116 27.0362C19.6205 27.0628 19.5247 27.07 19.4305 27.0575C19.3364 27.045 19.2459 27.013 19.1649 26.9634C19.0839 26.9139 19.014 26.848 18.9599 26.77C18.9487 26.7359 18.9354 26.7025 18.92 26.67L19.61 23.218L24.53 18.385L17.8199 22.214C17.8199 22.214 14.7899 21.308 14.3399 21.131C14.2239 21.0676 14.1281 20.9726 14.0638 20.857C13.9995 20.7414 13.9693 20.61 13.9767 20.4779C13.984 20.3458 14.0285 20.2185 14.1052 20.1108C14.1819 20.003 14.2876 19.9192 14.41 19.869C15.05 19.543 26.3399 15.231 26.7199 15.12C27.0999 15.009 28.1 14.72 27.99 15.693C27.88 16.666 26.09 25.566 25.98 26.1Z" fill="white"/>
</svg>
