<svg width="43" height="43" viewBox="0 0 43 43" fill="none" xmlns="http://www.w3.org/2000/svg">
<path fill-rule="evenodd" clip-rule="evenodd" d="M0 43V0H43V43H0Z" fill="#333333"/>
<path fill-rule="evenodd" clip-rule="evenodd" d="M0 43V0H43V43H0Z" fill="url(#paint0_linear_1_323)"/>
<path fill-rule="evenodd" clip-rule="evenodd" d="M27 20C25.9151 19.9961 24.8613 19.6367 24 18.977V24.5C24 25.39 23.7361 26.26 23.2416 27.0001C22.7471 27.7401 22.0443 28.3169 21.2221 28.6575C20.3998 28.9981 19.495 29.0872 18.6221 28.9135C17.7492 28.7399 16.9474 28.3113 16.318 27.682C15.6887 27.0526 15.2601 26.2508 15.0865 25.3779C14.9128 24.505 15.002 23.6002 15.3426 22.7779C15.6832 21.9557 16.2599 21.2529 16.9999 20.7584C17.7399 20.2639 18.61 20 19.5 20C19.6675 20.0077 19.8344 20.0244 20 20.05V22.05C19.8354 22.017 19.6679 22.0003 19.5 22C19.0056 22 18.5222 22.1466 18.1111 22.4213C17.7 22.696 17.3796 23.0865 17.1903 23.5433C17.0011 24.0001 16.9517 24.5028 17.0481 24.9877C17.1446 25.4727 17.3826 25.9181 17.7322 26.2678C18.0818 26.6174 18.5274 26.8555 19.0124 26.952C19.4973 27.0484 19.9999 26.9989 20.4567 26.8097C20.9135 26.6205 21.3039 26.3 21.5786 25.8889C21.8534 25.4778 22 24.9945 22 24.5V15V14H24V15C24 15.7956 24.3161 16.5587 24.8787 17.1213C25.4413 17.6839 26.2044 18 27 18C27.3415 17.9969 27.6798 17.9346 28 17.816V19.9C27.6709 19.9669 27.3359 20.0004 27 20Z" fill="white"/>
<defs>
<linearGradient id="paint0_linear_1_323" x1="0" y1="43" x2="43" y2="0" gradientUnits="userSpaceOnUse">
<stop stop-color="#FC0E5C"/>
<stop offset="1" stop-color="#2AF5EE"/>
</linearGradient>
</defs>
</svg>
