<svg width="43" height="43" viewBox="0 0 43 43" fill="none" xmlns="http://www.w3.org/2000/svg">
<g clip-path="url(#clip0_2_436)">
<path fill-rule="evenodd" clip-rule="evenodd" d="M0 43V0H43V43H0Z" fill="#333333"/>
<path fill-rule="evenodd" clip-rule="evenodd" d="M0 43V0H43V43H0Z" fill="url(#paint0_linear_2_436)"/>
<path fill-rule="evenodd" clip-rule="evenodd" d="M28.864 18.432C27.3393 18.4265 25.8584 17.9214 24.648 16.9943V24.756C24.648 26.0067 24.2771 27.2294 23.5822 28.2695C22.8872 29.3094 21.8996 30.12 20.7441 30.5986C19.5885 31.0773 18.317 31.2025 17.0902 30.9584C15.8635 30.7144 14.7367 30.1121 13.8522 29.2277C12.9678 28.3432 12.3655 27.2164 12.1216 25.9897C11.8774 24.763 12.0028 23.4915 12.4815 22.3359C12.9601 21.1804 13.7706 20.1927 14.8105 19.4978C15.8505 18.8029 17.0732 18.432 18.324 18.432C18.5594 18.4428 18.7939 18.4663 19.0266 18.5023V21.3129C18.7953 21.2665 18.5599 21.2431 18.324 21.2427C17.6292 21.2427 16.9498 21.4487 16.3721 21.8347C15.7944 22.2208 15.3441 22.7695 15.0781 23.4115C14.8122 24.0535 14.7428 24.7599 14.8782 25.4414C15.0139 26.1229 15.3483 26.7489 15.8396 27.2403C16.3309 27.7316 16.9572 28.0662 17.6387 28.2019C18.3202 28.3373 19.0265 28.2678 19.6685 28.0019C20.3104 27.736 20.8591 27.2856 21.2451 26.7078C21.6313 26.1301 21.8373 25.4509 21.8373 24.756V11.4053V10H24.648V11.4053C24.648 12.5234 25.0922 13.5958 25.8828 14.3865C26.6735 15.1771 27.7459 15.6213 28.864 15.6213C29.3439 15.617 29.8193 15.5294 30.2693 15.3627V18.2915C29.8068 18.3855 29.336 18.4326 28.864 18.432Z" fill="white"/>
</g>
<defs>
<linearGradient id="paint0_linear_2_436" x1="0" y1="43" x2="43" y2="0" gradientUnits="userSpaceOnUse">
<stop stop-color="#FC0E5C"/>
<stop offset="1" stop-color="#2AF5EE"/>
</linearGradient>
<clipPath id="clip0_2_436">
<rect width="43" height="43" fill="white"/>
</clipPath>
</defs>
</svg>
