<svg width="43" height="43" viewBox="0 0 43 43" fill="none" xmlns="http://www.w3.org/2000/svg">
<g clip-path="url(#clip0_2_440)">
<path d="M43 0H0V43H43V0Z" fill="#7B519D"/>
<path fill-rule="evenodd" clip-rule="evenodd" d="M15.8024 11.5631C16.429 12.5792 17.8344 15.0296 18.0376 15.4767C18.2114 15.773 18.2661 16.1244 18.1907 16.4596C18.1152 16.7947 17.9152 17.0885 17.6312 17.2819C17.0788 17.6169 16.5624 18.0079 16.0901 18.4487C15.853 18.9009 15.6329 20.6502 18.2408 23.2463C20.8488 25.8424 22.9487 26.3674 23.4906 25.7865C24.0325 25.2056 24.3544 24.5638 24.6931 24.2251C24.9404 23.9567 25.2789 23.7906 25.6423 23.7592C26.0059 23.7279 26.3679 23.8338 26.6574 24.0558C28.0926 24.8141 29.4785 25.6625 30.8065 26.596C31.6363 27.2361 32.2627 27.7018 31.9579 28.535C31.678 29.3665 31.215 30.1246 30.6033 30.7534C30.1046 31.2489 29.491 31.6132 28.8172 31.8135C28.1434 32.0139 27.4304 32.0442 26.742 31.9016C24.78 31.4198 22.9173 30.5986 21.2383 29.4749C19.4564 28.1999 17.8005 26.7572 16.2933 25.1667C14.9152 23.8129 13.652 22.3471 12.5169 20.784C11.4016 18.9191 10.5955 16.8861 10.1293 14.7637C9.97332 14.2034 9.95825 13.6133 10.0853 13.0459C10.2123 12.4782 10.4775 11.9509 10.8573 11.5106C11.535 10.808 12.3982 10.3123 13.3467 10.0813C14.0072 9.90855 14.7525 9.90855 15.8024 11.5631ZM21.035 11.8323V10C23.9546 10 26.7544 11.1597 28.8186 13.224C30.8829 15.2884 32.0426 18.0882 32.0426 21.0075H30.2138C30.2125 18.574 29.2448 16.2404 27.5237 14.52C25.8027 12.7995 23.4687 11.8328 21.035 11.8323ZM28.3678 21.0058H26.5388C26.5376 19.5467 25.9571 18.1478 24.9253 17.1161C23.8933 16.0846 22.4943 15.5046 21.035 15.5038V13.668C21.9985 13.6684 22.9524 13.8587 23.8421 14.2277C24.7321 14.5969 25.5407 15.1376 26.2216 15.8191C26.9024 16.5007 27.4424 17.3097 27.8106 18.1999C28.1789 19.0902 28.3683 20.0424 28.3678 21.0058Z" fill="white"/>
</g>
<defs>
<clipPath id="clip0_2_440">
<rect width="43" height="43" fill="white"/>
</clipPath>
</defs>
</svg>
