<svg width="43" height="43" viewBox="0 0 43 43" fill="none" xmlns="http://www.w3.org/2000/svg">
<path d="M43 0H0V43H43V0Z" fill="#7B519D"/>
<path fill-rule="evenodd" clip-rule="evenodd" d="M18.4101 15.923C18.7801 16.523 19.61 17.97 19.73 18.234C19.8326 18.409 19.8649 18.6165 19.8204 18.8144C19.7758 19.0123 19.6577 19.1858 19.49 19.3C19.1638 19.4978 18.8589 19.7287 18.58 19.989C18.44 20.256 18.31 21.289 19.85 22.822C21.39 24.355 22.63 24.665 22.95 24.322C23.27 23.979 23.4601 23.6 23.6601 23.4C23.8061 23.2415 24.006 23.1434 24.2206 23.1249C24.4353 23.1064 24.6491 23.1689 24.82 23.3C25.6675 23.7478 26.4859 24.2488 27.2701 24.8C27.7601 25.178 28.13 25.453 27.95 25.945C27.7847 26.436 27.5113 26.8837 27.1501 27.255C26.8556 27.5476 26.4933 27.7627 26.0954 27.881C25.6975 27.9993 25.2765 28.0172 24.87 27.933C23.7114 27.6485 22.6115 27.1636 21.62 26.5C20.5678 25.7471 19.59 24.8952 18.7 23.956C17.8862 23.1566 17.1403 22.291 16.47 21.368C15.8114 20.2668 15.3354 19.0663 15.0601 17.813C14.968 17.4821 14.9591 17.1337 15.0341 16.7986C15.1091 16.4634 15.2657 16.152 15.49 15.892C15.8902 15.4771 16.3999 15.1844 16.96 15.048C17.35 14.946 17.7901 14.946 18.4101 15.923ZM21.5 16.082V15C23.224 15 24.8773 15.6848 26.0962 16.9038C27.3152 18.1228 28 19.7761 28 21.5H26.9201C26.9193 20.063 26.3479 18.685 25.3316 17.6691C24.3153 16.6531 22.9371 16.0823 21.5 16.082ZM25.83 21.499H24.75C24.7493 20.6374 24.4065 19.8113 23.7972 19.2021C23.1878 18.593 22.3617 18.2505 21.5 18.25V17.166C22.0689 17.1662 22.6322 17.2786 23.1576 17.4965C23.6831 17.7145 24.1606 18.0338 24.5627 18.4362C24.9647 18.8387 25.2836 19.3164 25.501 19.8421C25.7185 20.3678 25.8303 20.9311 25.83 21.5V21.499Z" fill="white"/>
</svg>
